<svg width="130" height="46" viewBox="0 0 130 46" fill="none" xmlns="http://www.w3.org/2000/svg">
<g id="Group 1171275977">
<path id="Vector" d="M49.7812 11.5703H52.7405C53.5041 11.5703 54.053 11.6896 54.3633 11.9043C54.6735 12.1191 54.8406 12.5008 54.8406 13.0257V13.4313C54.8406 13.7892 54.7451 14.0516 54.578 14.2425C54.411 14.4334 54.1485 14.5527 53.7905 14.6004C54.1723 14.672 54.4587 14.8151 54.6496 15.0299C54.8644 15.2446 54.9599 15.5309 54.9599 15.8649V16.2467C54.9599 16.8431 54.7928 17.2487 54.4826 17.4873C54.1485 17.7259 53.5757 17.8452 52.6927 17.8452H49.7812V11.5703ZM51.4518 12.9541V14.0755H52.645C52.8359 14.0755 52.9552 14.0516 53.0268 13.9801C53.0984 13.9085 53.1462 13.8131 53.1462 13.646V13.3836C53.1462 13.2404 53.0984 13.1211 53.0268 13.0496C52.9552 12.978 52.8121 12.9541 52.645 12.9541H51.4518ZM51.4518 15.2684V16.4375H52.6927C52.8837 16.4375 53.0268 16.3898 53.0984 16.3182C53.1939 16.2467 53.2178 16.1274 53.2178 15.9604V15.6979C53.2178 15.5309 53.17 15.4116 53.0984 15.34C53.003 15.2684 52.8837 15.2207 52.6927 15.2207H51.4518V15.2684Z" fill="#0072BC"/>
<path id="Vector_2" d="M56.0576 17.8452V11.5703H57.752V16.3898H60.5442V17.8452H56.0576Z" fill="#0072BC"/>
<path id="Vector_3" d="M61.1172 14.0533C61.1172 13.099 61.2842 12.4309 61.6422 12.0492C62.0002 11.6674 62.6207 11.4766 63.5037 11.4766H64.3389C65.2219 11.4766 65.8424 11.6674 66.2004 12.0492C66.5583 12.4309 66.7254 13.099 66.7254 14.0295V15.3417C66.7254 16.2961 66.5345 16.9641 66.2004 17.322C65.8424 17.7037 65.2219 17.8946 64.3389 17.8946H63.5037C62.6207 17.8946 62.0002 17.7037 61.6422 17.322C61.2842 16.9403 61.1172 16.2722 61.1172 15.3178V14.0533ZM62.8354 14.1965V15.2224C62.8354 15.7473 62.907 16.1052 63.0264 16.2245C63.1457 16.3676 63.4082 16.4392 63.79 16.4392H64.1003C64.4821 16.4392 64.7446 16.3676 64.8639 16.2245C64.9833 16.0813 65.0549 15.7473 65.0549 15.2224V14.1965C65.0549 13.6716 64.9833 13.3376 64.8639 13.1944C64.7446 13.0513 64.4821 12.9797 64.1003 12.9797H63.79C63.4082 12.9797 63.1457 13.0513 63.0264 13.1944C62.8832 13.3137 62.8354 13.6716 62.8354 14.1965Z" fill="#0072BC"/>
<path id="Vector_4" d="M72.9069 15.4371V15.628C72.9069 16.4392 72.716 17.0357 72.358 17.3936C72 17.7515 71.4034 17.9423 70.592 17.9423H70.0193C69.1363 17.9423 68.5158 17.7515 68.1578 17.3697C67.7999 16.988 67.6328 16.3199 67.6328 15.3656V14.0533C67.6328 13.099 67.7999 12.4309 68.1578 12.0492C68.5158 11.6674 69.1363 11.4766 70.0193 11.4766H70.4727C71.3557 11.4766 71.9762 11.6436 72.3103 11.9776C72.6683 12.3116 72.8353 12.8842 72.8353 13.7193V13.8386H71.1648V13.7193C71.1648 13.433 71.0932 13.2421 70.9739 13.1228C70.8307 13.0035 70.6159 12.9558 70.2818 12.9558C69.9238 12.9558 69.6852 13.0274 69.5659 13.1705C69.4465 13.3137 69.3749 13.6477 69.3749 14.1965V15.2224C69.3749 15.7473 69.4465 16.0813 69.5659 16.2245C69.6852 16.3676 69.9238 16.4392 70.2818 16.4392C70.6159 16.4392 70.8545 16.3676 70.9739 16.2483C71.0932 16.1291 71.1648 15.8905 71.1648 15.5564V15.4133H72.9069V15.4371Z" fill="#0072BC"/>
<path id="Vector_5" d="M73.9092 17.8452V11.5703H75.6036V13.9323H75.7229L77.2264 11.5703H79.231L77.1786 14.6004L79.4458 17.8452H77.3696L75.7229 15.34H75.6036V17.8452H73.9092Z" fill="#0072BC"/>
<path id="Vector_6" d="M84.8385 15.4371V15.628C84.8385 16.4392 84.6476 17.0357 84.2897 17.3936C83.9317 17.7515 83.3351 17.9423 82.5237 17.9423H81.9509C81.0679 17.9423 80.4474 17.7515 80.0895 17.3697C79.7315 16.988 79.5645 16.3199 79.5645 15.3656V14.0533C79.5645 13.099 79.7315 12.4309 80.0895 12.0492C80.4474 11.6674 81.0679 11.4766 81.9509 11.4766H82.4043C83.2873 11.4766 83.9078 11.6436 84.2419 11.9776C84.5999 12.3116 84.767 12.8842 84.767 13.7193V13.8386H83.0964V13.7193C83.0964 13.433 83.0248 13.2421 82.9055 13.1228C82.7623 13.0035 82.5475 12.9558 82.2134 12.9558C81.8555 12.9558 81.6168 13.0274 81.4975 13.1705C81.3782 13.3137 81.3066 13.6477 81.3066 14.1965V15.2224C81.3066 15.7473 81.3782 16.0813 81.4975 16.2245C81.6168 16.3676 81.8555 16.4392 82.2134 16.4392C82.5475 16.4392 82.7862 16.3676 82.9055 16.2483C83.0248 16.1291 83.0964 15.8905 83.0964 15.5564V15.4133H84.8385V15.4371Z" fill="#0072BC"/>
<path id="Vector_7" d="M85.8652 17.8452V11.5703H87.5596V13.9085H89.7313V11.5703H91.4257V17.8452H89.7313V15.3877H87.5596V17.8452H85.8652Z" fill="#0072BC"/>
<path id="Vector_8" d="M92.2129 17.8452L94.0266 11.5703H96.604L98.37 17.8452H96.5563L96.2699 16.7477H94.2891L94.0027 17.8452H92.2129ZM94.6232 15.4832H96.0074L95.363 12.8826H95.2437L94.6232 15.4832Z" fill="#0072BC"/>
<path id="Vector_9" d="M100.924 11.5703H99.2295V17.8452H100.924V11.5703Z" fill="#0072BC"/>
<path id="Vector_10" d="M102.236 17.8452V11.5703H104.742L106.699 16.2228V11.5703H108.298V17.8452H105.792L103.835 13.145V17.8452H102.236Z" fill="#0072BC"/>
<path id="Vector_11" d="M112.594 17.8452V11.5703H116.818V12.978H114.288V14.1948H116.675V15.5548H114.288V17.8452H112.594Z" fill="#0072BC"/>
<path id="Vector_12" d="M117.677 14.0533C117.677 13.099 117.844 12.4309 118.202 12.0492C118.56 11.6674 119.18 11.4766 120.063 11.4766H120.898C121.781 11.4766 122.402 11.6674 122.76 12.0492C123.118 12.4309 123.285 13.099 123.285 14.0295V15.3417C123.285 16.2961 123.094 16.9641 122.76 17.322C122.402 17.7037 121.781 17.8946 120.898 17.8946H120.063C119.18 17.8946 118.56 17.7037 118.202 17.322C117.844 16.9403 117.677 16.2722 117.677 15.3178V14.0533ZM119.395 14.1965V15.2224C119.395 15.7473 119.467 16.1052 119.586 16.2245C119.705 16.3676 119.968 16.4392 120.35 16.4392H120.66C121.042 16.4392 121.304 16.3676 121.424 16.2245C121.543 16.0813 121.614 15.7473 121.614 15.2224V14.1965C121.614 13.6716 121.543 13.3376 121.424 13.1944C121.304 13.0513 121.042 12.9797 120.66 12.9797H120.35C119.968 12.9797 119.705 13.0513 119.586 13.1944C119.467 13.3137 119.395 13.6716 119.395 14.1965Z" fill="#0072BC"/>
<path id="Vector_13" d="M124.406 17.8452V11.5703H126.936C127.89 11.5703 128.559 11.6896 128.917 11.9521C129.275 12.2145 129.466 12.644 129.466 13.2882V13.7892C129.466 14.2187 129.37 14.5527 129.155 14.7913C128.941 15.0299 128.654 15.173 128.248 15.2207C128.678 15.2923 128.988 15.4355 129.179 15.6502C129.37 15.8649 129.466 16.1512 129.466 16.5568V17.8452H127.747V16.7238C127.747 16.4614 127.7 16.2705 127.604 16.1751C127.509 16.0796 127.318 16.0319 127.031 16.0319H126.101V17.8691H124.406V17.8452ZM126.077 14.6004H127.008C127.294 14.6004 127.485 14.5527 127.58 14.4572C127.676 14.3618 127.723 14.1709 127.723 13.9085V13.6699C127.723 13.4074 127.676 13.2166 127.58 13.1211C127.485 13.0257 127.294 12.978 127.008 12.978H126.077V14.6004Z" fill="#0072BC"/>
<path id="Vector_14" d="M53.6951 20.0195H49.7812V34.5258H53.6951V20.0195Z" fill="#034EA2"/>
<path id="Vector_15" d="M68.3959 20.0195H74.0519V34.5019H70.2813V23.8608L67.3698 34.5019H63.4798L60.5445 23.7415V34.5019H56.75V20.0195H62.4298L65.4129 30.4936L68.3959 20.0195Z" fill="#034EA2"/>
<path id="Vector_16" d="M77.0117 34.5019V20.0195H83.8131C85.7223 20.0195 87.1065 20.4013 87.9179 21.1409C88.7531 21.8805 89.1588 23.1212 89.1588 24.839V25.7934C89.1588 27.5112 88.7531 28.7519 87.9179 29.5154C87.0826 30.2789 85.7223 30.6367 83.8131 30.6367H80.9017V34.5019H77.0117ZM80.9017 27.4158H83.5984C84.2427 27.4158 84.6484 27.2965 84.8632 27.0818C85.078 26.8432 85.1734 26.3899 85.1734 25.698V24.8629C85.1734 24.2903 85.0302 23.8847 84.7677 23.6222C84.5052 23.3836 84.0518 23.2643 83.4313 23.2643H80.9017V27.4158Z" fill="#034EA2"/>
<path id="Vector_17" d="M89.1826 34.4984L93.3589 19.9922H99.349L103.43 34.4984H99.2535L98.5614 31.9694H94.0033L93.3351 34.4984H89.1826ZM94.7192 29.0109H97.8932L96.4613 22.9984H96.1988L94.7192 29.0109Z" fill="#034EA2"/>
<path id="Vector_18" d="M116.603 28.9184V29.3478C116.603 31.2327 116.197 32.5926 115.362 33.4277C114.527 34.2628 113.167 34.6684 111.281 34.6684H109.969C107.916 34.6684 106.484 34.2389 105.649 33.3561C104.814 32.4734 104.408 30.9464 104.408 28.7514V25.7451C104.408 23.5501 104.814 21.9993 105.649 21.1404C106.484 20.2576 107.916 19.8281 109.969 19.8281H111.043C113.071 19.8281 114.503 20.2099 115.314 20.9734C116.126 21.7368 116.531 23.0968 116.531 25.0294V25.3157H112.642V25.0532C112.642 24.3852 112.498 23.9319 112.188 23.6456C111.878 23.3831 111.353 23.24 110.589 23.24C109.754 23.24 109.205 23.407 108.919 23.7171C108.632 24.0512 108.489 24.8146 108.489 26.0553V28.4412C108.489 29.6819 108.632 30.4453 108.919 30.7794C109.205 31.0895 109.754 31.2565 110.589 31.2565C111.377 31.2565 111.926 31.1134 112.212 30.8032C112.522 30.5169 112.665 29.992 112.665 29.2285V28.8945H116.603V28.9184Z" fill="#034EA2"/>
<path id="Vector_19" d="M121.805 34.5019V23.2405H118.082V20.0195H129.442V23.2405H125.743V34.5019H121.805Z" fill="#034EA2"/>
<path id="Vector_20" fill-rule="evenodd" clip-rule="evenodd" d="M0 34.5004L19.927 22.9766L39.8301 34.5004L19.927 46.0004L0 34.5004Z" fill="#0072BC"/>
<path id="Vector_21" fill-rule="evenodd" clip-rule="evenodd" d="M39.8299 34.5L19.9268 22.9761V0L39.8299 11.5V34.5Z" fill="#0095DA"/>
<path id="Vector_22" fill-rule="evenodd" clip-rule="evenodd" d="M19.927 22.9761V0L0 11.5V34.5L19.927 22.9761Z" fill="#00AEEF"/>
<path id="Vector_23" d="M13.5312 17.5117L19.927 13.8374L27.8739 18.4183L31.8593 20.7326V16.9629C31.8593 16.438 31.5729 15.9609 31.1195 15.6984L20.6429 9.63824C20.1895 9.37579 19.6406 9.37579 19.1633 9.63824L13.5312 12.9069V17.5117Z" fill="#034EA2"/>
<path id="Vector_24" d="M27.8737 20.2578V27.6064L20.237 32.0203L15.9414 34.5016L19.187 36.3864C19.6404 36.6489 20.1893 36.6489 20.6666 36.3864L31.1432 30.3263C31.5966 30.0638 31.883 29.5867 31.883 29.0618V22.5483L27.8737 20.2578Z" fill="#034EA2"/>
<path id="Vector_25" d="M18.3518 31.279L11.98 27.6048V19.9938H11.9561V13.8143V0L7.9707 2.29046V16.1048V29.0602C7.9707 29.5851 8.25708 30.0622 8.71051 30.3247L14.3664 33.5934L18.3518 31.279Z" fill="#034EA2"/>
</g>
</svg>
